# xmcd
#
# Track frame offsets:
#	150
#	20453
#	42386
#	56447
#	75212
#	91195
#	105551
#	123097
#	137630
#	151550
#	166377
#
# Disc length: 2435 seconds
#
# Revision: 2
# Processed by: cddbd v1.5.2PL0 Copyright (c) Steve Scherf et al.
# Submitted via: EasyCDDAExtractor 12.0.1.1
#
DISCID=7109810b
DTITLE=Earl King - Glazed
DYEAR=1988
DGENRE=Blues
TTITLE0=It All Went Down The Drain
TTITLE1=Your Love Was Never There
TTITLE2=Everybody's Got To Cry Sometime
TTITLE3=Love Rent
TTITLE4=Three Can Play The Game
TTITLE5=Iron Cupid
TTITLE6=Somebody's Got A Tail
TTITLE7=I Met A Stranger
TTITLE8=Mardi Gras In New Orleans
TTITLE9=There's Been Some Lonely, Lonely Nights
TTITLE10=One Step Beyond Love
EXTD=
EXTT0=
EXTT1=
EXTT2=
EXTT3=
EXTT4=
EXTT5=
EXTT6=
EXTT7=
EXTT8=
EXTT9=
EXTT10=
PLAYORDER=
